<svg width="160" height="34" viewBox="0 0 160 34" fill="none" xmlns="http://www.w3.org/2000/svg">
<path d="M38.5515 0.799929C37.7556 0.291383 36.7896 0.0371094 35.6534 0.0371094C34.3219 0.0371094 33.2047 0.387486 32.3008 1.08824C31.3968 1.78899 30.7992 2.78106 30.5068 4.06344L31.9674 4.27466C32.1786 3.39772 32.6001 2.70698 33.2338 2.20043C33.8664 1.69489 34.6483 1.43561 35.5793 1.4256C36.3691 1.41459 37.0419 1.57877 37.5965 1.91713C38.1511 2.25549 38.5865 2.728 38.9029 3.33365C39.2192 3.9393 39.4104 4.64006 39.4755 5.43591H34.0386V6.80739H39.4665C39.4344 7.27789 39.3553 7.73639 39.2312 8.18287C39.1071 8.62934 38.8878 9.0558 38.5735 9.46124C38.2321 9.92674 37.7977 10.2691 37.2711 10.4883C36.7435 10.7076 36.1789 10.8227 35.5783 10.8337C34.7013 10.8447 33.9495 10.6035 33.3219 10.1109C32.6942 9.61841 32.2557 8.9587 32.0064 8.13081L30.5859 8.4962C30.8022 9.29706 31.1455 9.97379 31.617 10.5254C32.0875 11.077 32.6652 11.4964 33.3499 11.7837C34.0346 12.07 34.8015 12.2142 35.6514 12.2142C36.8036 12.2142 37.7847 11.9439 38.5935 11.4023C39.4024 10.8607 40.0151 10.131 40.4315 9.21097C40.848 8.29098 41.0482 7.26288 41.0322 6.12666C41.0211 4.91435 40.8039 3.85121 40.3784 2.93623C39.954 2.02224 39.3433 1.31048 38.5475 0.801931L38.5515 0.799929Z" fill="#333333"/>
<path d="M44.0955 8.26808H48.7054V11.9691H50.151V3.20264H48.7054V6.89661H44.0955V3.20264H42.6499V11.9691H44.0955V8.26808Z" fill="#333333"/>
<path d="M58.6731 9.2988C58.4298 9.79733 58.0944 10.1787 57.667 10.443C57.2395 10.7083 56.736 10.8405 56.1574 10.8405C55.2974 10.8405 54.6337 10.5562 54.1682 9.98854C53.7658 9.49701 53.5385 8.8313 53.4835 7.99139H60.2067C60.2498 6.95228 60.1166 6.05731 59.8053 5.30451C59.4939 4.5527 59.0284 3.97307 58.4088 3.56764C57.7891 3.1612 57.0383 2.95898 56.1564 2.95898C55.2744 2.95898 54.5666 3.15019 53.936 3.5316C53.3053 3.91301 52.8148 4.45459 52.4624 5.15534C52.111 5.8561 51.9348 6.68499 51.9348 7.64302C51.9348 8.60105 52.113 9.35686 52.4704 10.0416C52.8278 10.7263 53.3263 11.2589 53.968 11.6403C54.6097 12.0217 55.3595 12.2129 56.2204 12.2129C57.0813 12.2129 57.8372 12.0007 58.5219 11.5762C59.2066 11.1518 59.7192 10.5521 60.0606 9.77831L58.6721 9.2998L58.6731 9.2988ZM54.1682 5.11831C54.6337 4.54469 55.3124 4.25838 56.2054 4.25838C57.0393 4.25838 57.667 4.52467 58.0884 5.05824C58.4218 5.47969 58.628 6.07133 58.7081 6.83215H53.5125C53.5996 6.12138 53.8178 5.54977 54.1672 5.11931L54.1682 5.11831Z" fill="#333333"/>
<path d="M69.4938 5.21541C69.1804 4.51766 68.7289 3.96707 68.1423 3.56363C67.5547 3.1602 66.8559 2.95898 66.0441 2.95898C65.2322 2.95898 64.5274 3.1592 63.9618 3.55963C63.7105 3.73682 63.4883 3.94605 63.2921 4.1823V3.20225H62.0017V15.8649H63.4543V11.1538C63.6084 11.317 63.7746 11.4671 63.9578 11.5993C64.5204 12.0077 65.2132 12.2119 66.0361 12.2119C66.8589 12.2119 67.5557 12.0077 68.1423 11.5993C68.7289 11.1908 69.1794 10.6372 69.4938 9.93949C69.8071 9.24174 69.9643 8.45389 69.9643 7.57695C69.9643 6.70001 69.8071 5.91316 69.4938 5.21441V5.21541ZM68.1463 9.26176C67.9571 9.7623 67.6728 10.1587 67.2944 10.451C66.915 10.7434 66.4365 10.8895 65.8579 10.8895C65.2792 10.8895 64.7837 10.7474 64.4053 10.4631C64.0269 10.1787 63.7466 9.78632 63.5654 9.28578C63.3842 8.78525 63.2931 8.21563 63.2931 7.57695C63.2931 6.93826 63.3852 6.35564 63.5694 5.8601C63.7536 5.36457 64.0319 4.97815 64.4053 4.69885C64.7787 4.42056 65.2492 4.2804 65.8178 4.2804C66.3864 4.2804 66.904 4.42656 67.2914 4.71888C67.6778 5.01119 67.9651 5.40662 68.1513 5.90415C68.3375 6.40168 68.4316 6.95928 68.4316 7.57595C68.4316 8.19261 68.3365 8.75922 68.1473 9.25976L68.1463 9.26176Z" fill="#333333"/>
<path d="M73.1946 4.57511H77.8375V3.20264H71.75V11.9691H73.1946V4.57511Z" fill="#333333"/>
<path d="M80.6986 11.6203C81.3293 12.0147 82.0801 12.2129 82.951 12.2129C83.822 12.2129 84.5748 12.0167 85.2075 11.6243C85.8401 11.2319 86.3277 10.6883 86.669 9.99254C87.0094 9.2968 87.1806 8.49193 87.1806 7.57795C87.1806 6.66397 87.0114 5.87512 86.673 5.17937C86.3347 4.48362 85.8491 3.94004 85.2155 3.54762C84.5828 3.15519 83.828 2.95898 82.951 2.95898C82.0741 2.95898 81.3523 3.15219 80.7186 3.53961C80.0859 3.92702 79.5954 4.4666 79.2491 5.15935C78.9027 5.85209 78.7295 6.65796 78.7295 7.57795C78.7295 8.49794 78.8997 9.28278 79.241 9.98053C79.5814 10.6783 80.0679 11.2249 80.6976 11.6203H80.6986ZM80.5565 5.88913C80.7517 5.40161 81.046 5.0202 81.4414 4.7449C81.8358 4.46861 82.3394 4.33046 82.951 4.33046C83.849 4.33046 84.5227 4.62377 84.9722 5.21141C85.4217 5.79904 85.6459 6.58688 85.6459 7.57795C85.6459 8.56901 85.4237 9.32583 84.9802 9.93148C84.5367 10.5371 83.86 10.8405 82.951 10.8405C82.0421 10.8405 81.4004 10.5431 80.9459 9.9475C80.4914 9.35286 80.2641 8.56201 80.2641 7.57695C80.2641 6.93826 80.3612 6.37566 80.5565 5.88813V5.88913Z" fill="#333333"/>
<path d="M91.085 11.9691H92.5305V4.51805H95.5818V3.20264H88.0327V4.51805H91.085V11.9691Z" fill="#333333"/>
<path d="M98.6709 11.6398C99.3126 12.0212 100.062 12.2124 100.923 12.2124C101.784 12.2124 102.54 12.0002 103.225 11.5757C103.91 11.1513 104.422 10.5516 104.763 9.7778L103.375 9.29929C103.132 9.79782 102.796 10.1792 102.369 10.4435C101.941 10.7088 101.438 10.8409 100.859 10.8409C99.9993 10.8409 99.3356 10.5566 98.8701 9.98903C98.4677 9.4975 98.2404 8.83178 98.1854 7.99188H104.909C104.952 6.95276 104.818 6.0578 104.507 5.30499C104.196 4.55319 103.73 3.97356 103.111 3.56813C102.491 3.16169 101.74 2.95947 100.858 2.95947C99.9763 2.95947 99.2685 3.15068 98.6379 3.53209C98.0072 3.9135 97.5167 4.45508 97.1643 5.15583C96.8129 5.85659 96.6367 6.68548 96.6367 7.64351C96.6367 8.60154 96.8149 9.35735 97.1723 10.0421C97.5297 10.7268 98.0282 11.2594 98.6699 11.6408L98.6709 11.6398ZM98.8701 5.11779C99.3356 4.54418 100.014 4.25787 100.907 4.25787C101.741 4.25787 102.369 4.52415 102.79 5.05773C103.124 5.47918 103.33 6.07082 103.41 6.83164H98.2144C98.3015 6.12087 98.5197 5.54926 98.8691 5.11879L98.8701 5.11779Z" fill="#333333"/>
<path d="M113.708 3.20264H111.987L109.609 6.41709L107.206 3.20264H105.485L108.765 7.5373L105.412 11.9691H107.141L109.609 8.6575L112.061 11.9691H113.789L110.429 7.5373L113.708 3.20264Z" fill="#333333"/>
<path d="M121.135 6.89661H116.524V3.20264H115.08V11.9691H116.524V8.26808H121.135V11.9691H122.58V3.20264H121.135V6.89661Z" fill="#333333"/>
<path d="M130.851 3.54762C130.218 3.15519 129.463 2.95898 128.586 2.95898C127.709 2.95898 126.988 3.15219 126.354 3.53961C125.721 3.92702 125.231 4.4666 124.884 5.15935C124.538 5.85209 124.365 6.65796 124.365 7.57795C124.365 8.49794 124.535 9.28278 124.876 9.98053C125.217 10.6783 125.703 11.2249 126.333 11.6203C126.964 12.0147 127.714 12.2129 128.585 12.2129C129.456 12.2129 130.209 12.0167 130.842 11.6243C131.474 11.2319 131.962 10.6883 132.303 9.99254C132.644 9.2968 132.815 8.49193 132.815 7.57795C132.815 6.66397 132.646 5.87512 132.307 5.17937C131.969 4.48362 131.483 3.94004 130.85 3.54762H130.851ZM130.615 9.93148C130.172 10.5371 129.495 10.8405 128.586 10.8405C127.677 10.8405 127.036 10.5431 126.581 9.9475C126.127 9.35286 125.899 8.56201 125.899 7.57695C125.899 6.93826 125.996 6.37566 126.192 5.88813C126.387 5.40061 126.681 5.0192 127.077 4.7439C127.471 4.46761 127.975 4.32946 128.586 4.32946C129.484 4.32946 130.158 4.62277 130.607 5.2104C131.057 5.79804 131.281 6.58588 131.281 7.57695C131.281 8.56801 131.059 9.32483 130.615 9.93048V9.93148Z" fill="#333333"/>
<path d="M141.72 3.20264H139.999L137.621 6.41709L135.218 3.20264H133.497L136.777 7.5373L133.424 11.9691H135.153L137.621 8.6575L140.072 11.9691H141.801L138.441 7.5373L141.72 3.20264Z" fill="#333333"/>
<path d="M149.806 4.67183C149.557 4.09821 149.147 3.66975 148.577 3.38544C148.005 3.10114 147.322 2.95898 146.527 2.95898C145.537 2.95898 144.739 3.17822 144.133 3.61669C143.527 4.05516 143.119 4.65881 142.908 5.42664L144.279 5.84108C144.441 5.2995 144.722 4.90908 145.119 4.66782C145.517 4.42756 145.981 4.30643 146.511 4.30643C147.312 4.30643 147.876 4.49263 148.204 4.86704C148.499 5.2024 148.653 5.70393 148.67 6.36865C148.361 6.41069 148.041 6.45474 147.706 6.49879C147.175 6.56886 146.652 6.64595 146.135 6.73004C145.619 6.81413 145.151 6.91223 144.735 7.02636C144.291 7.1565 143.91 7.33369 143.59 7.55793C143.271 7.78217 143.024 8.06447 142.848 8.40183C142.671 8.7402 142.583 9.13963 142.583 9.59912C142.583 10.0586 142.695 10.5031 142.92 10.8975C143.144 11.2929 143.477 11.6103 143.918 11.8515C144.358 12.0918 144.907 12.2129 145.561 12.2129C146.411 12.2129 147.132 12.0317 147.725 11.6693C148.156 11.4061 148.517 11.0497 148.809 10.6032V11.9707H150.091V6.54884C150.091 6.20247 150.075 5.87111 150.042 5.55477C150.01 5.23843 149.931 4.94512 149.807 4.67383L149.806 4.67183ZM148.508 8.98246C148.438 9.34485 148.285 9.67921 148.053 9.98454C147.82 10.2909 147.514 10.5371 147.132 10.7233C146.751 10.9095 146.3 11.0036 145.781 11.0036C145.364 11.0036 145.027 10.9366 144.771 10.8004C144.513 10.6653 144.324 10.4891 144.203 10.2728C144.081 10.0566 144.02 9.82937 144.02 9.59111C144.02 9.31482 144.084 9.08357 144.211 8.89737C144.338 8.71117 144.505 8.558 144.715 8.43887C144.923 8.31975 145.146 8.22264 145.384 8.14656C145.709 8.05446 146.074 7.97438 146.48 7.9073C146.886 7.83923 147.316 7.77616 147.771 7.7161C148.061 7.67806 148.356 7.63901 148.653 7.59797C148.651 7.73412 148.648 7.89329 148.643 8.07749C148.635 8.40984 148.59 8.71217 148.509 8.98246H148.508Z" fill="#333333"/>
<path d="M159.54 5.72671C159.234 5.08803 158.797 4.58649 158.228 4.22109C157.661 3.8557 156.984 3.67351 156.199 3.67351C155.593 3.67351 155.022 3.79564 154.486 4.0389C153.951 4.28216 153.515 4.66357 153.18 5.18313C153.229 4.55545 153.365 3.98884 153.59 3.4823C153.814 2.97676 154.138 2.59635 154.56 2.34207C154.846 2.15788 155.189 2.01372 155.587 1.90761C155.986 1.80249 156.402 1.71941 156.838 1.66034C157.273 1.60128 157.694 1.54822 158.1 1.50217C158.505 1.45612 158.858 1.40106 159.155 1.33599L159.009 0.0375977C158.587 0.118685 158.143 0.187759 157.678 0.24482C157.212 0.301882 156.749 0.366952 156.285 0.44003C155.823 0.513109 155.38 0.614217 154.958 0.744357C154.535 0.874497 154.154 1.05569 153.813 1.28794C153.478 1.51018 153.176 1.78948 152.908 2.12784C152.64 2.46621 152.434 2.8326 152.288 3.22803C152.158 3.55838 152.05 3.97783 151.967 4.48638C151.883 4.99493 151.824 5.5255 151.789 6.07709C151.754 6.62868 151.747 7.13523 151.769 7.59472C151.807 8.59079 151.988 9.43169 152.313 10.1194C152.637 10.8072 153.093 11.3277 153.676 11.6821C154.261 12.0365 154.967 12.2167 155.795 12.2217C156.644 12.2267 157.384 12.0515 158.015 11.6941C158.646 11.3367 159.134 10.8342 159.48 10.1845C159.827 9.53481 160 8.77699 160 7.91206C160 7.09518 159.847 6.3674 159.542 5.72871L159.54 5.72671ZM157.815 10.0574C157.376 10.5849 156.733 10.8482 155.883 10.8482C155.033 10.8482 154.411 10.5909 153.967 10.0774C153.523 9.56284 153.301 8.85407 153.301 7.9501C153.301 7.04613 153.521 6.34438 153.963 5.82782C154.403 5.31127 155.041 5.05299 155.874 5.05299C156.706 5.05299 157.334 5.31127 157.79 5.82782C158.244 6.34438 158.471 7.05214 158.471 7.9501C158.471 8.84807 158.252 9.5288 157.814 10.0564L157.815 10.0574Z" fill="#333333"/>
<path d="M31.1565 30.0772H32.601V19.7601H38.8357V30.0772H40.2803V18.3887H31.1565V30.0772Z" fill="#333333"/>
<path d="M48.5391 21.676C47.9195 21.2696 47.1687 21.0674 46.2867 21.0674C45.4048 21.0674 44.697 21.2586 44.0663 21.64C43.4357 22.0214 42.9451 22.563 42.5928 23.2637C42.2414 23.9645 42.0652 24.7934 42.0652 25.7514C42.0652 26.7094 42.2434 27.4653 42.6008 28.15C42.9581 28.8347 43.4567 29.3673 44.0984 29.7487C44.7401 30.1301 45.4899 30.3213 46.3508 30.3213C47.2117 30.3213 47.9675 30.1091 48.6523 29.6846C49.337 29.2602 49.8496 28.6605 50.1909 27.8867L48.8024 27.4082C48.5592 27.9067 48.2238 28.2881 47.7963 28.5524C47.3689 28.8177 46.8653 28.9499 46.2867 28.9499C45.4268 28.9499 44.7631 28.6656 44.2976 28.0979C43.8952 27.6064 43.6679 26.9407 43.6128 26.1008H50.3361C50.3791 25.0617 50.246 24.1667 49.9346 23.4139C49.6233 22.6621 49.1578 22.0825 48.5381 21.677L48.5391 21.676ZM44.2976 23.2267C44.7631 22.6531 45.4418 22.3668 46.3348 22.3668C47.1687 22.3668 47.7963 22.6331 48.2178 23.1666C48.5512 23.5881 48.7574 24.1797 48.8375 24.9405H43.6419C43.729 24.2298 43.9472 23.6582 44.2966 23.2277L44.2976 23.2267Z" fill="#333333"/>
<path d="M51.2461 22.625H54.2984V30.077H55.7439V22.625H58.7952V21.3105H51.2461V22.625Z" fill="#333333"/>
<path d="M66.3243 21.676C65.7046 21.2696 64.9538 21.0674 64.0719 21.0674C63.1899 21.0674 62.4822 21.2586 61.8515 21.64C61.2208 22.0214 60.7303 22.563 60.3779 23.2637C60.0265 23.9645 59.8503 24.7934 59.8503 25.7514C59.8503 26.7094 60.0285 27.4653 60.3859 28.15C60.7433 28.8347 61.2418 29.3673 61.8835 29.7487C62.5252 30.1301 63.275 30.3213 64.1359 30.3213C64.9969 30.3213 65.7527 30.1091 66.4374 29.6846C67.1222 29.2602 67.6347 28.6605 67.9761 27.8867L66.5876 27.4082C66.3443 27.9067 66.009 28.2881 65.5815 28.5524C65.154 28.8177 64.6505 28.9499 64.0719 28.9499C63.212 28.9499 62.5482 28.6656 62.0827 28.0979C61.6803 27.6064 61.4531 26.9407 61.398 26.1008H68.1212C68.1643 25.0617 68.0311 24.1667 67.7198 23.4139C67.4085 22.6621 66.943 22.0825 66.3233 21.677L66.3243 21.676ZM62.0827 23.2267C62.5482 22.6531 63.227 22.3668 64.1199 22.3668C64.9538 22.3668 65.5815 22.6331 66.003 23.1666C66.3363 23.5881 66.5425 24.1797 66.6226 24.9405H61.427C61.5141 24.2298 61.7324 23.6582 62.0817 23.2277L62.0827 23.2267Z" fill="#333333"/>
<path d="M76.0566 21.672C75.469 21.2686 74.7702 21.0674 73.9584 21.0674C73.1465 21.0674 72.4417 21.2676 71.8761 21.668C71.6249 21.8452 71.4026 22.0544 71.2064 22.2907V21.3106H69.916V33.9733H71.3686V29.2622C71.5227 29.4254 71.6889 29.5755 71.8721 29.7077C72.4347 30.1161 73.1275 30.3203 73.9504 30.3203C74.7732 30.3203 75.47 30.1161 76.0566 29.7077C76.6432 29.2992 77.0937 28.7456 77.4081 28.0479C77.7214 27.3501 77.8786 26.5623 77.8786 25.6853C77.8786 24.8084 77.7214 24.0216 77.4081 23.3228C77.0947 22.6251 76.6443 22.0745 76.0566 21.671V21.672ZM76.0606 27.3702C75.8714 27.8707 75.5871 28.2671 75.2087 28.5594C74.8293 28.8517 74.3508 28.9979 73.7722 28.9979C73.1935 28.9979 72.698 28.8558 72.3196 28.5715C71.9412 28.2871 71.6609 27.8947 71.4797 27.3942C71.2985 26.8936 71.2074 26.324 71.2074 25.6853C71.2074 25.0467 71.2995 24.464 71.4837 23.9685C71.6679 23.473 71.9462 23.0866 72.3196 22.8073C72.693 22.529 73.1635 22.3888 73.7321 22.3888C74.3007 22.3888 74.8183 22.535 75.2057 22.8273C75.5921 23.1196 75.8794 23.515 76.0656 24.0125C76.2518 24.5101 76.3459 25.0677 76.3459 25.6843C76.3459 26.301 76.2508 26.8686 76.0616 27.3682L76.0606 27.3702Z" fill="#333333"/>
<path d="M85.6629 22.329C85.0953 21.9636 84.4186 21.7814 83.6338 21.7814C83.0281 21.7814 82.4565 21.9035 81.9209 22.1468C81.3853 22.3901 80.9499 22.7715 80.6145 23.291C80.6636 22.6634 80.7997 22.0968 81.0249 21.5902C81.2492 21.0847 81.5725 20.7043 81.995 20.45C82.2813 20.2658 82.6237 20.1216 83.0221 20.0155C83.4205 19.9104 83.837 19.8273 84.2724 19.7683C84.7079 19.7092 85.1284 19.6561 85.5348 19.6101C85.9402 19.564 86.2926 19.509 86.5899 19.4439L86.4438 18.1455C86.0213 18.2266 85.5778 18.2957 85.1123 18.3527C84.6468 18.4098 84.1833 18.4749 83.7198 18.5479C83.2573 18.621 82.8149 18.7221 82.3924 18.8523C81.97 18.9824 81.5886 19.1636 81.2482 19.3959C80.9128 19.6181 80.6105 19.8974 80.3432 20.2358C80.0749 20.5741 79.8687 20.9405 79.7225 21.3359C79.5924 21.6663 79.4853 22.0857 79.4022 22.5943C79.3181 23.1028 79.2591 23.6334 79.224 24.185C79.189 24.7366 79.182 25.2431 79.204 25.7026C79.242 26.6987 79.4232 27.5396 79.7476 28.2273C80.0719 28.9151 80.5274 29.4356 81.111 29.79C81.6957 30.1444 82.4014 30.3246 83.2293 30.3296C84.0792 30.3346 84.819 30.1594 85.4497 29.802C86.0804 29.4447 86.5689 28.9421 86.9153 28.2924C87.2617 27.6427 87.4348 26.8859 87.4348 26.02C87.4348 25.2031 87.2817 24.4753 86.9763 23.8366C86.671 23.1979 86.2335 22.6964 85.6649 22.331L85.6629 22.329ZM85.2495 28.1653C84.811 28.6928 84.1673 28.9561 83.3174 28.9561C82.4675 28.9561 81.8458 28.6989 81.4014 28.1853C80.9579 27.6707 80.7356 26.962 80.7356 26.058C80.7356 25.154 80.9559 24.4523 81.3973 23.9357C81.8378 23.4192 82.4755 23.1609 83.3084 23.1609C84.1413 23.1609 84.769 23.4192 85.2245 23.9357C85.679 24.4523 85.9062 25.16 85.9062 26.058C85.9062 26.956 85.687 27.6367 85.2485 28.1643L85.2495 28.1653Z" fill="#333333"/>
<path d="M92.254 28.208L89.5191 21.3105H88.0015L91.5563 30.0469L90.1117 33.9732H91.5162L96.2884 21.3105H94.8198L92.254 28.208Z" fill="#333333"/>
<path d="M103.761 21.672C103.173 21.2686 102.474 21.0674 101.662 21.0674C100.851 21.0674 100.146 21.2676 99.5802 21.668C99.3289 21.8452 99.1067 22.0544 98.9105 22.2907V21.3106H97.6201V33.9733H99.0727V29.2622C99.2268 29.4254 99.393 29.5755 99.5762 29.7077C100.139 30.1161 100.832 30.3203 101.654 30.3203C102.477 30.3203 103.174 30.1161 103.761 29.7077C104.347 29.2992 104.798 28.7456 105.112 28.0479C105.426 27.3501 105.583 26.5623 105.583 25.6853C105.583 24.8084 105.426 24.0216 105.112 23.3228C104.799 22.6241 104.347 22.0745 103.761 21.671V21.672ZM103.765 27.3702C103.576 27.8707 103.291 28.2671 102.913 28.5594C102.533 28.8517 102.055 28.9979 101.476 28.9979C100.898 28.9979 100.402 28.8558 100.024 28.5715C99.6453 28.2871 99.365 27.8947 99.1838 27.3942C99.0026 26.8936 98.9115 26.324 98.9115 25.6853C98.9115 25.0467 99.0036 24.464 99.1878 23.9685C99.372 23.473 99.6503 23.0866 100.024 22.8073C100.397 22.529 100.868 22.3888 101.436 22.3888C102.005 22.3888 102.522 22.535 102.91 22.8273C103.296 23.1196 103.584 23.515 103.77 24.0125C103.956 24.5101 104.05 25.0677 104.05 25.6843C104.05 26.301 103.955 26.8686 103.766 27.3682L103.765 27.3702Z" fill="#333333"/>
<path d="M107.368 30.077H108.813V22.682H113.456V21.3105H107.368V30.077Z" fill="#333333"/>
<path d="M0 3.02608H5.46688V27.0799H0V30.0772H9.04072V0.0268555H0V3.02608Z" fill="#333333"/>
<path d="M13.0781 30.0942H22.1178V27.097H16.651V3.02608H22.1178V0.0268555H13.0781V30.0942Z" fill="#333333"/>
</svg>
