<?xml version="1.0" standalone="no"?>
<!DOCTYPE svg PUBLIC "-//W3C//DTD SVG 20010904//EN"
 "http://www.w3.org/TR/2001/REC-SVG-20010904/DTD/svg10.dtd">
<svg version="1.0" xmlns="http://www.w3.org/2000/svg"
 width="360.000000pt" height="360.000000pt" viewBox="0 0 360.000000 360.000000"
 preserveAspectRatio="xMidYMid meet">
<metadata>
Created by potrace 1.14, written by Peter Selinger 2001-2017
</metadata>
<g transform="translate(0.000000,360.000000) scale(0.100000,-0.100000)"
fill="#000000" stroke="none">
<path d="M960 2835 l0 -115 210 0 210 0 0 -915 0 -915 -210 0 -210 0 0 -110 0
-110 345 0 345 0 -2 1138 -3 1137 -342 3 -343 2 0 -115z"/>
<path d="M1960 1810 l0 -1140 340 0 340 0 0 110 0 110 -210 0 -210 0 0 915 0
915 210 0 210 0 0 115 0 115 -340 0 -340 0 0 -1140z"/>
</g>
</svg>
